<svg width="25" height="21" viewBox="0 0 25 21" fill="none" xmlns="http://www.w3.org/2000/svg">
<path d="M11.5705 0.439572C11.852 0.721115 12.0101 1.10292 12.0101 1.50102C12.0101 1.89912 11.852 2.28092 11.5705 2.56247L5.12526 9.00772H22.5198C22.918 9.00772 23.2998 9.1659 23.5814 9.44746C23.863 9.72901 24.0211 10.1109 24.0211 10.5091C24.0211 10.9072 23.863 11.2891 23.5814 11.5707C23.2998 11.8522 22.918 12.0104 22.5198 12.0104H5.12526L11.5705 18.4557C11.844 18.7388 11.9953 19.1181 11.9919 19.5117C11.9885 19.9053 11.8306 20.2819 11.5522 20.5603C11.2739 20.8386 10.8973 20.9965 10.5037 20.9999C10.11 21.0034 9.73077 20.852 9.44762 20.5786L0.439572 11.5705C0.158114 11.289 0 10.9072 0 10.5091C0 10.111 0.158114 9.72916 0.439572 9.44762L9.44762 0.439572C9.72916 0.158114 10.111 0 10.5091 0C10.9072 0 11.289 0.158114 11.5705 0.439572Z" fill="white"/>
</svg>
