<svg width="168" height="149" viewBox="0 0 168 149" fill="none" xmlns="http://www.w3.org/2000/svg">
<path d="M36.0943 118.785L36.3894 116.73L50.4204 125.456L74.3747 131.222L99.6173 136.657L112.334 134.35L123.257 127.757L113.109 136.786L94.0351 140.247L66.7765 135.039L45.267 127.041L36.0943 118.785Z" fill="#475359"/>
<path d="M149.487 67.7352L158.408 38.0171L158.684 38.5407L157.999 40.8618L152.865 70.6747L138.976 87.0228L127.151 94.8832L127.896 89.694L138.059 82.6282L149.487 67.7352Z" fill="#4C5B67"/>
<path d="M141.341 102.182L123.933 120.22L122.731 114.294L124.366 112.31C125.066 111.032 126.292 108.504 125.601 108.612L139.161 99.4504L151.488 77.3233L154.994 62.7132L158.531 38.0886L159.983 56.4163L152.507 80.0212L141.341 102.182Z" fill="#2B2A34"/>
<path d="M88.6906 26.5781L75.7621 22.5249L103.045 19.7269L114.49 21.371L132.026 26.7538L127.019 28.9915L117.833 31.4103L100.872 28.9739L88.6906 26.5781Z" fill="#C4CECD"/>
<path d="M23.4041 12.7092L30.0597 11.1383L20.1089 7.93452L16.8965 11.0216L23.4041 12.7092Z" fill="#998887"/>
<path d="M129.441 43.6704L130.114 38.9874L148.767 36.4999L158.928 34.3426L163.455 31.2467L163.132 54.0648L159.769 77.4794L150.31 94.3347L137.495 114.971L123.325 127.283L124.506 119.065L141.232 101.686L152.419 79.6531L159.855 56.3067L158.419 37.8865L141.697 40.6513L129.441 43.6704Z" fill="#879294"/>
<path d="M161.456 28.5052L163.428 31.2108L159.637 33.9461L157.866 31.5948L130.999 35.5314L131.366 30.5301L161.456 28.5052Z" fill="#EFF0F0"/>
<path d="M69.7414 10.5507L66.6548 17.3413L75.2102 22.4456L103.026 19.8534L113.782 21.3984L131.877 26.7106L131.298 20.9436L111.61 13.9817L91.8918 11.1491L69.7414 10.5507Z" fill="#817D75"/>
<path d="M47.6361 79.198L22.3479 12.2684L29.8637 10.8937L52.0568 65.1612L47.6361 79.198Z" fill="#BDC7C7"/>
<path d="M22.6598 12.0548L17.4199 11.3021L41.4766 99.6647L45.1622 88.6881L22.6598 12.0548Z" fill="#82776A"/>
<path d="M45.0247 88.8295L48.26 78.7708L22.8628 12.6006L45.0247 88.8295Z" fill="#432D2F"/>
<path d="M131.878 26.7107L122.848 29.8057L120.886 62.0765L116.39 107.469L113.009 134.673L123.288 127.656L127.724 96.7741L129.132 57.5773L131.878 26.7107Z" fill="#453F3B"/>
<path d="M151.268 70.5954C152.875 60.0615 157.854 42.6271 157.779 41.5829L158.13 40.1548L158.482 38.7268L156.839 52.2012L155.235 63.3692L153.766 67.8895L151.763 77.363L139.785 99.0235L126.051 108.418L127.501 94.5482L139.241 86.1567L151.268 70.5954Z" fill="#8EA0A8"/>
<path d="M91.2158 13.894L90.7915 12.9288L96.3541 14.3738L98.6544 15.996L97.9271 21.0586L95.2602 20.0296L95.7147 16.8655L94.104 15.3423L91.2158 13.894Z" fill="#2C2D30"/>
<path d="M90.8926 13.2017L90.9835 12.5688L96.3036 11.783L104.163 12.912L108.082 15.0251L106.826 16.9115L101.807 16.5781L101.444 19.1094L101.098 21.5141L97.9267 21.0585L98.6357 16.1225L96.3537 14.3737L90.8926 13.2017Z" fill="#BABFC5"/>
<path d="M41.5193 99.2459L36.3358 116.715L50.6781 125.622L76.1395 133.542L99.1674 136.85L113.281 134.615L116.808 110.061L120.329 69.8761L123.28 29.7384L117.832 31.4102L98.9414 28.6965L75.3483 22.4654L66.6732 17.2147L41.5193 99.2459Z" fill="#797E87"/>
<path d="M85.0626 57.7054L89.5716 26.3172L79.5313 23.7123L72.9928 21.2229L68.2957 38.2454L64.0456 53.1362L58.1318 73.7301L55.2227 93.9806L49.7816 111.284L59.034 115.455L71.3684 115.806L76.8914 103.811L80.4005 79.3834L85.0626 57.7054Z" fill="#1E1818"/>
<path d="M115.837 30.6069L108.666 29.5769L98.4622 28.1111L96.1168 44.438L94.026 58.9931L90.8806 80.8889L84.7184 107.131L80.391 125.498L93.9013 125.501L104.839 125.781L105.839 118.82L108.966 97.0505L113.057 68.5732L112.691 52.5028L115.837 30.6069Z" fill="#CAD4D8"/>
<path d="M130.785 39.2105L130.949 35.4704L158.087 31.3799L159.752 33.9625L158.907 34.5402L153.259 35.9333L146.869 36.7895L130.785 39.2105Z" fill="#292B29"/>
</svg>
