<svg width="88" height="86" viewBox="0 0 88 86" fill="none" xmlns="http://www.w3.org/2000/svg">
<path d="M48.4118 12.4794L54.5582 14.156L57.5241 16.0677L61.2409 18.4634L65.7193 23.6349L69.043 27.0525L71.2745 32.742L74.1009 36.8488L73.0755 48.2508L73.7232 56.4799L67.3967 63.9867L59.234 69.7256L48.36 71.5912L39.4612 68.9908L32.3367 70.563L25.5296 67.0257L19.3467 62.1903L16.1843 53.9878L11.3359 44.1139L10.9393 36.8969L12.1236 31.7616L16.6486 24.741L24.4776 19.8499L29.7993 15.4684L38.1612 11.3991L48.4118 12.4794Z" fill="#D0961C"/>
<path d="M71.3639 38.5391L66.8608 29.3661L59.3184 19.1374L52.0015 15.4842L45.8526 13.6466L37.4199 13.9505L30.4755 17.5518L23.4091 35.6881L24.6548 46.5345L41.5305 64.2136L56.9045 67.3209L65.5542 65.0313L71.3376 56.0584L71.3639 38.5391Z" fill="#CCA97A"/>
<path d="M62.1255 25.9949L57.6954 23.1395L56.419 22.3167L54.7735 24.8697L52.88 30.6106L51.9533 26.7718L53.553 22.0637L53.2963 19.0818L50.7809 17.4605L46.7202 17.6596L43.0265 18.361L44.1067 21.7143L45.4088 25.7951L42.3637 22.7696L39.4138 18.6895L37.1828 19.4302L35.2227 22.4712L36.096 26.0631L41.9969 31.0887L43.7705 33.8609L36.7123 29.3116L32.2221 27.1266L30.02 30.543L30.3126 35.036L32.273 38.4252L37.7621 37.6588L40.2776 39.2801L29.6138 40.3248L27.6538 43.3658L31.4706 47.4201L33.9766 52.4363L41.282 52.1498L39.7239 57.9475L43.222 61.4244L50.6985 61.7795L50.9669 52.7061L55.9864 63.2216L60.5871 60.2884L62.2326 57.7355L57.9069 52.8218L57.8854 50.6291L52.6587 45.1347L54.9113 46.5866L57.4683 49.2975L62.2779 53.4603L63.5091 58.5582L67.8262 54.9108L68.2277 51.2373L68.3457 46.8495L55.6116 42.2022L68.4485 43.8868L68.4229 40.6287L67.0082 36.4753L64.034 32.4327L62.1255 25.9949Z" fill="#BE8022" fill-opacity="0.45"/>
<path d="M53.1717 38.2382L51.5191 35.5256L51.9264 33.8219L50.2745 32.7572L46.9923 31.6248L48.5157 33.5897L47.6611 36.8119L47.328 39.3074L45.7067 41.8228L46.143 42.7948L48.5975 43.686L48.4379 46.9841L51.6907 51.4189L51.8544 49.1862L50.8877 45.1621L50.2188 41.1706L52.2038 39.7399L53.1717 38.2382Z" fill="#CDA646"/>
<path d="M50.6709 39.9742L50.2563 38.8036L49.86 38.0168L48.6044 37.7389L47.83 38.9403L48.3597 40.3445L49.4485 41.0463L50.6709 39.9742Z" fill="#7A653C"/>
<path d="M23.9134 20.2304L16.6969 24.666L12.0992 31.7992L10.8883 36.811L11.2849 44.028L15.5751 31.4357L23.9134 20.2304Z" fill="#75562F"/>
</svg>
