<svg width="128" height="25" viewBox="0 0 128 25" fill="none" xmlns="http://www.w3.org/2000/svg">
<path d="M0.818182 24V0.727272H3.63636V21.5H14.4545V24H0.818182ZM51.6283 12.3636C51.6283 14.8182 51.1851 16.9394 50.2987 18.7273C49.4124 20.5152 48.1965 21.8939 46.651 22.8636C45.1056 23.8333 43.3404 24.3182 41.3556 24.3182C39.3707 24.3182 37.6056 23.8333 36.0601 22.8636C34.5147 21.8939 33.2988 20.5152 32.4124 18.7273C31.526 16.9394 31.0828 14.8182 31.0828 12.3636C31.0828 9.90909 31.526 7.78788 32.4124 6C33.2988 4.21212 34.5147 2.83333 36.0601 1.86364C37.6056 0.893939 39.3707 0.40909 41.3556 0.40909C43.3404 0.40909 45.1056 0.893939 46.651 1.86364C48.1965 2.83333 49.4124 4.21212 50.2987 6C51.1851 7.78788 51.6283 9.90909 51.6283 12.3636ZM48.901 12.3636C48.901 10.3485 48.5639 8.64773 47.8897 7.26136C47.223 5.875 46.3177 4.82576 45.1737 4.11364C44.0374 3.40151 42.7647 3.04545 41.3556 3.04545C39.9465 3.04545 38.67 3.40151 37.526 4.11364C36.3897 4.82576 35.4844 5.875 34.8101 7.26136C34.1434 8.64773 33.8101 10.3485 33.8101 12.3636C33.8101 14.3788 34.1434 16.0795 34.8101 17.4659C35.4844 18.8523 36.3897 19.9015 37.526 20.6136C38.67 21.3258 39.9465 21.6818 41.3556 21.6818C42.7647 21.6818 44.0374 21.3258 45.1737 20.6136C46.3177 19.9015 47.223 18.8523 47.8897 17.4659C48.5639 16.0795 48.901 14.3788 48.901 12.3636ZM86.356 8C86.106 7.23485 85.7765 6.54924 85.3674 5.94318C84.9659 5.32954 84.4848 4.80682 83.9242 4.375C83.3712 3.94318 82.7424 3.61364 82.0378 3.38636C81.3333 3.15909 80.5606 3.04545 79.7197 3.04545C78.3409 3.04545 77.0871 3.40151 75.9583 4.11364C74.8295 4.82576 73.9318 5.875 73.2651 7.26136C72.5985 8.64773 72.2651 10.3485 72.2651 12.3636C72.2651 14.3788 72.6022 16.0795 73.2765 17.4659C73.9507 18.8523 74.8636 19.9015 76.0151 20.6136C77.1666 21.3258 78.4621 21.6818 79.9015 21.6818C81.2348 21.6818 82.4091 21.3977 83.4242 20.8295C84.4469 20.2538 85.2424 19.4432 85.8106 18.3977C86.3863 17.3447 86.6742 16.1061 86.6742 14.6818L87.5378 14.8636H80.5378V12.3636H89.4015V14.8636C89.4015 16.7803 88.9924 18.447 88.1742 19.8636C87.3636 21.2803 86.2424 22.3788 84.8106 23.1591C83.3863 23.9318 81.75 24.3182 79.9015 24.3182C77.8409 24.3182 76.0303 23.8333 74.4697 22.8636C72.9166 21.8939 71.7045 20.5152 70.8333 18.7273C69.9697 16.9394 69.5378 14.8182 69.5378 12.3636C69.5378 10.5227 69.7841 8.86742 70.2765 7.39773C70.7765 5.92045 71.481 4.66288 72.3901 3.625C73.2992 2.58712 74.375 1.79167 75.6174 1.23864C76.8598 0.685605 78.2272 0.40909 79.7197 0.40909C80.9469 0.40909 82.0909 0.594696 83.1515 0.965908C84.2197 1.32954 85.1704 1.84848 86.0038 2.52273C86.8447 3.18939 87.5454 3.98864 88.106 4.92045C88.6666 5.8447 89.053 6.87121 89.2651 8H86.356ZM127.945 12.3636C127.945 14.8182 127.501 16.9394 126.615 18.7273C125.729 20.5152 124.513 21.8939 122.967 22.8636C121.422 23.8333 119.657 24.3182 117.672 24.3182C115.687 24.3182 113.922 23.8333 112.376 22.8636C110.831 21.8939 109.615 20.5152 108.729 18.7273C107.842 16.9394 107.399 14.8182 107.399 12.3636C107.399 9.90909 107.842 7.78788 108.729 6C109.615 4.21212 110.831 2.83333 112.376 1.86364C113.922 0.893939 115.687 0.40909 117.672 0.40909C119.657 0.40909 121.422 0.893939 122.967 1.86364C124.513 2.83333 125.729 4.21212 126.615 6C127.501 7.78788 127.945 9.90909 127.945 12.3636ZM125.217 12.3636C125.217 10.3485 124.88 8.64773 124.206 7.26136C123.539 5.875 122.634 4.82576 121.49 4.11364C120.354 3.40151 119.081 3.04545 117.672 3.04545C116.263 3.04545 114.986 3.40151 113.842 4.11364C112.706 4.82576 111.801 5.875 111.126 7.26136C110.46 8.64773 110.126 10.3485 110.126 12.3636C110.126 14.3788 110.46 16.0795 111.126 17.4659C111.801 18.8523 112.706 19.9015 113.842 20.6136C114.986 21.3258 116.263 21.6818 117.672 21.6818C119.081 21.6818 120.354 21.3258 121.49 20.6136C122.634 19.9015 123.539 18.8523 124.206 17.4659C124.88 16.0795 125.217 14.3788 125.217 12.3636Z" fill="black"/>
</svg>
